<svg width="300" height="64" viewBox="0 0 300 64" fill="none" xmlns="http://www.w3.org/2000/svg">
<path d="M20.682 0.406031C12.9954 2.21904 6.74654 8.17117 3.12442 17.1678C0.912442 22.641 0 27.7038 0 34.5795C0 43.7814 2.04608 50.7939 6.2765 56.3698C8.54378 59.3459 11.4194 61.5694 14.7373 62.9377C17.1152 63.8955 17.5576 63.9981 21.4286 63.9981C26.2949 64.0323 27.871 63.6218 31.659 61.3299C35.6682 58.867 38.7373 54.9673 40.9493 49.494C41.3917 48.3994 41.7512 47.339 41.7512 47.1337C41.7512 46.7916 39.871 45.047 39.4839 45.047C39.3456 45.047 39.2627 45.2523 39.2627 45.526C39.2627 45.7654 38.6544 47.1337 37.9355 48.502C34.5069 55.0015 30.0276 58.046 24.0276 58.046C20.9862 58.046 19.2442 57.5329 16.894 55.9935C9.89862 51.3755 6.85714 37.3161 9.78802 23.0515C11.8341 13.1313 16.9217 5.84505 22.8664 4.30571C25.106 3.75838 28.341 4.06625 29.7512 4.95565C31.2995 5.91347 32.7097 8.06855 33.2627 10.1894C33.8433 12.4129 33.871 17.6467 33.3456 19.9044L32.9309 21.5122L34.0645 21.3069C35.7788 20.9648 37.9908 19.5281 39.0691 18.023C40.6452 15.9021 41.0046 13.4392 40.2028 10.1552C39.0968 5.50297 36.0276 2.35587 31.106 0.748108C28.7281 -0.0386687 23.3088 -0.209707 20.682 0.406031Z" fill="black"/>
<path d="M114.691 1.19283L110.046 2.3901V3.45054C110.046 5.16092 110.295 5.36617 112.479 5.26355C114.028 5.22934 114.553 5.33196 114.747 5.70825C115.134 6.42661 115.078 8.65011 114.608 13.405C111.843 41.9342 111.677 43.5419 111.124 45.0471C109.382 49.6993 105.926 54.3858 102.912 56.2672C100.922 57.4645 100.673 57.5329 98.1843 57.5329C95.7235 57.5329 95.4193 57.4645 94.0092 56.4724C91.1336 54.4542 89.7511 50.7256 89.7788 45.0471C89.8064 37.7266 92.9308 31.2956 96.9401 30.372C100.23 29.6194 102.028 31.9797 101.668 36.5978C101.558 37.7608 101.392 39.0949 101.309 39.5396C101.115 40.3264 101.143 40.3606 102.498 40.1896C104.184 39.9843 105.788 39.0265 106.562 37.7266C107.419 36.3241 107.336 33.3481 106.396 31.3298C104.986 28.3195 102.387 26.917 98.3225 26.917C94.0921 26.917 90.8571 28.5248 87.9539 32.0824C86.0737 34.4085 84.2765 38.4108 83.6405 41.6605C83.1705 44.2261 83.0875 48.7415 83.5299 50.6229C83.7511 51.7176 83.7235 52.0939 83.364 52.8122C82.341 54.6936 80.7926 56.4724 79.4931 57.225C77.6129 58.3197 76.5345 58.2855 75.4285 57.054C74.5437 56.062 74.5161 55.9593 74.4055 52.9148C74.212 45.9023 75.9815 38.1029 78.9677 33.0402C80.0461 31.193 80.0737 31.0903 79.4378 29.4826L78.9677 28.2853L77.447 28.559C75.3732 28.8668 69.2073 28.7642 68.1567 28.3879C67.3548 28.0801 67.3272 27.9774 67.1613 25.6855C66.9954 23.0515 66.6912 22.1621 65.6405 21.1359C64.7557 20.2807 63.5944 20.2123 62.3502 20.9649C59.8064 22.4358 60.0553 28.1485 62.7373 30.5772C63.2903 31.0903 63.8433 31.6035 63.9539 31.7061C64.4792 32.2534 61.7972 43.5077 59.9723 48.3652L58.9216 51.2045L60.0829 52.0254C61.2166 52.8806 61.2166 52.8806 61.6037 52.1623C62.7649 50.144 65.917 38.5134 66.4977 34.1348L66.6912 32.6639L67.7143 32.8691C68.2673 32.9718 69.7603 33.177 71.0599 33.2796L73.4378 33.5191L72.2488 36.3583C69.8156 42.1394 68.5714 47.7153 68.5438 52.9148C68.5438 56.3698 68.8755 58.217 69.7327 59.6196C70.7557 61.2273 71.3917 61.7746 72.9954 62.3562C74.2949 62.8693 74.7926 62.8693 76.3963 62.5272C79.0783 61.9799 80.8479 60.7484 83.1152 57.8408L85.106 55.3436L85.7972 56.6435C87.4285 59.688 90.6083 61.9115 94.2304 62.5614C98.8755 63.4166 103.576 61.2273 107.447 56.5067C108.664 55.0015 109.963 53.2569 110.35 52.6412L111.014 51.4781L110.931 53.2227C110.71 57.1224 111.899 60.5089 114 61.8773C115.604 62.9377 118.728 62.9377 120.664 61.8773C122.378 60.9194 124.147 59.1406 125.53 56.9856L126.581 55.3094L127.189 56.5067C127.521 57.1566 128.35 58.2855 129.041 59.0722C132.995 63.3482 138.94 63.9297 144.747 60.6116C147.014 59.3117 148.037 58.3881 150.166 55.7883L151.742 53.9069L152.654 55.4804C156.304 61.7746 165.594 64.7507 173.696 62.1851C180.525 60.03 184.7 53.77 184.7 45.7312C184.7 40.9422 183.401 37.2477 180.553 33.998C178.535 31.6719 176.765 30.4404 171.041 27.2591C166.175 24.5909 165.152 23.9067 163.604 22.1621C162.138 20.5202 161.392 18.6045 161.364 16.3126C161.309 13.1655 161.917 11.2499 163.659 9.09481C165.65 6.63185 167.309 5.87929 170.599 5.87929C176.599 5.91349 179.447 9.67634 179.447 17.6125V20.1439L180.221 19.9044C181.908 19.3913 183.733 17.8178 184.369 16.2784C185.641 13.3024 184.617 8.51328 182.157 5.91349C179.53 3.10846 176.018 1.84278 171.014 1.80857C165.346 1.80857 161.53 3.51896 158.627 7.41863C155.945 11.0104 154.756 15.8337 155.336 20.7938C156.166 28.0117 159.124 31.4324 168.802 36.4952C175.659 40.087 177.926 42.6867 178.258 47.4416C178.811 54.7279 173.226 59.859 166.037 58.7302C162.829 58.217 161.032 57.225 159.097 54.8305C157.078 52.3333 156.249 49.9388 156.028 45.9707C155.917 44.3971 155.751 43.3367 155.558 43.3367C154.949 43.3367 152.461 44.9787 151.88 45.7654C151.134 46.7917 150.691 48.1942 150.691 49.5625C150.691 50.3835 150.304 51.0676 148.839 52.8806C145.051 57.5671 139.825 59.2091 135.788 56.9856C134.101 56.062 133.051 54.8305 132.276 52.7438C131.336 50.3151 131.392 49.5625 132.525 49.3572C132.995 49.2888 134.378 49.0494 135.594 48.8441C136.783 48.6389 138.885 47.9889 140.267 47.4074C147.429 44.4655 150.774 38.9581 149.253 32.5955C148.756 30.543 146.71 28.1143 144.857 27.4643C142.949 26.746 138.802 26.746 136.839 27.4643C132.636 29.0037 128.848 33.006 126.968 37.8977C125.309 42.2078 124.728 46.2786 125.198 49.9046C125.447 51.8544 125.447 51.8544 124.341 53.6332C123.041 55.7541 122.433 56.4382 121.051 57.3618C119.364 58.4907 117.594 58.0802 116.986 56.4382C116.571 55.3094 116.599 50.9308 117.097 46.347C117.318 44.2261 118.009 37.2477 118.617 30.8509C121.465 1.84278 121.493 1.29546 120.498 0.440265C119.751 -0.209681 120.249 -0.278096 114.691 1.19283ZM143.115 31.7745C144.442 33.4165 144.498 37.2135 143.226 39.7449C142.507 41.2158 140.765 43.1314 139.438 43.9524C137.917 44.9445 135.041 45.9707 133.106 46.2443L131.419 46.4838L131.668 44.1919C132.276 38.5476 135.041 33.2454 138.359 31.2956C139.963 30.372 142.175 30.6114 143.115 31.7745Z" fill="black"/>
<path d="M192.94 1.19282C190.424 1.91118 188.267 2.52692 188.212 2.62954C188.129 2.73216 188.157 3.41632 188.267 4.16889L188.433 5.53719L190.59 5.40036C192.691 5.29774 192.719 5.33195 192.995 6.22135C193.383 7.45282 193.189 9.64211 190.369 37.3503C189.069 49.9388 187.991 60.7142 187.936 61.2273C187.88 61.7404 187.908 62.2193 187.991 62.2877C188.184 62.4246 193.327 61.5352 193.465 61.3299C193.521 61.2615 193.825 59.0722 194.129 56.4724C195.926 40.9763 199.936 31.9113 204.691 32.4928C207.788 32.8349 208.12 34.8532 206.959 45.9365C206.046 54.4884 206.101 57.225 207.18 59.5169C208.452 62.1851 211.272 63.314 214.313 62.3219C216.387 61.672 218.24 60.2695 219.788 58.217L220.922 56.7119L221.309 57.6355C221.972 59.2432 224.046 61.3299 225.788 62.1509C230.074 64.1349 234.194 61.7062 236.959 55.5146L238.065 53.0859V54.7963C238.065 57.2934 238.535 58.9354 239.613 60.4405C240.857 62.1167 242.074 62.6298 244.424 62.4246C246.774 62.2193 249.207 60.6458 250.949 58.2512L252.221 56.5408L251.281 55.6172L250.369 54.6594L249.539 55.6514C249.097 56.1988 248.101 56.9855 247.383 57.3618C245.696 58.2854 244.59 58.046 243.816 56.5751C243.318 55.583 243.29 55.1041 243.429 50.8624C243.512 48.331 243.954 42.3104 244.396 37.5214C244.922 31.7745 245.115 28.73 244.922 28.5932C244.037 27.909 239.834 27.1222 237.097 27.1222C233.613 27.088 231.816 27.5669 229.078 29.1405C223.355 32.5271 219.705 39.437 219.346 47.6126C219.263 49.2888 219.318 51.2729 219.484 51.957C219.733 53.1201 219.677 53.3595 218.959 54.6252C217.936 56.3356 216.277 57.7039 214.922 57.9434C214.037 58.0802 213.677 57.9434 213.069 57.2934C211.936 56.0961 211.88 54.3173 212.765 45.5602C213.677 36.4951 213.622 33.9296 212.461 31.1245C211.853 29.6536 211.327 28.901 210.304 28.1143C209.032 27.1564 208.756 27.088 206.433 27.088C204.332 27.088 203.696 27.2249 202.535 27.9432C200.627 29.1063 198.581 31.7745 197.198 34.99L196.037 37.6924L196.175 36.1531C196.258 35.2979 196.562 32.2876 196.866 29.4826C197.889 19.9386 199.355 4.16889 199.355 2.59533C199.355 -0.243905 198.747 -0.346528 192.94 1.19282ZM239.336 31.0903C239.668 31.5008 238.092 43.5761 237.207 47.1679C235.548 54.1463 233.336 57.3618 230.24 57.3618C227.502 57.3618 225.899 54.5568 225.705 49.3914C225.456 43.8498 226.839 38.8897 229.659 35.1268C232.203 31.7403 234.304 30.5772 237.456 30.8167C238.424 30.8851 239.253 31.0219 239.336 31.0903Z" fill="black"/>
<path d="M49.5484 13.576C47.917 14.8075 47.3917 17.6125 48.3871 19.6308C49.8525 22.6068 53.364 22.4358 54.553 19.2887C55.1336 17.8178 55.1336 16.9968 54.6359 15.4574C54.1382 14.0207 52.7281 12.8919 51.4285 12.8919C50.9032 12.8919 50.0461 13.1997 49.5484 13.576Z" fill="black"/>
<path d="M253.604 21.1017C251.088 22.9831 251.419 27.6012 254.267 30.6114L255.594 32.014L254.959 35.3663C254.074 39.9501 252.608 45.2865 251.198 49.0152L250.037 52.0939L251.281 52.8464C251.972 53.2569 252.553 53.5648 252.581 53.5306C252.581 53.4622 253.134 52.0254 253.742 50.3493C255.346 46.0049 256.23 42.8236 257.309 37.5556C257.806 35.0242 258.276 32.9034 258.359 32.8349C258.415 32.7665 259.244 32.8691 260.212 33.0744C261.18 33.2454 262.645 33.4165 263.447 33.4165H264.94L264.249 34.8532C261.76 40.1554 259.88 47.8521 259.825 53.1201C259.797 56.233 259.853 56.7461 260.571 58.5249C261.512 60.8852 262.728 62.0141 264.968 62.5272C268.175 63.2456 271.272 61.7746 274.341 58.0802L276.221 55.7883L276.968 57.1224C279.65 61.9115 285.843 63.9639 291.512 61.9115C293.668 61.1247 296.903 58.9012 298.562 57.0882L300 55.4804L299.253 54.0779L298.479 52.6412L297.263 53.9753C294 57.5671 288.912 58.9012 285.318 57.1224C283.935 56.4382 281.945 53.7358 281.502 51.8886C281.309 51.1018 281.088 50.2466 281.032 50.0414C280.949 49.7335 281.696 49.4941 283.604 49.1862C293.972 47.51 300.166 41.1816 298.894 33.6217C298.258 29.8589 295.935 27.4985 292.258 26.9512C282.553 25.4461 274.065 35.7768 274.618 48.3994C274.7 50.0414 274.866 51.6492 274.977 51.957C275.115 52.4359 274.728 53.1543 273.263 54.9331C271.134 57.5671 269.668 58.3539 267.954 57.8408C266.461 57.3618 265.88 56.062 265.77 52.9833C265.521 46.8601 267.622 37.9661 270.47 32.8349C271.023 31.8087 271.217 31.1588 271.078 30.543C270.857 29.38 269.889 28.1827 269.392 28.4221C268.369 28.9353 263.198 29.0379 261.097 28.6274L258.885 28.2169L258.719 25.8908C258.525 23.12 257.972 21.649 256.866 20.9307C255.76 20.2465 254.682 20.2807 253.604 21.1017ZM292.009 31.2272C294.387 32.7323 294.111 38.3424 291.512 41.5579C290.018 43.4051 287.005 45.1839 284.184 45.8681C280.839 46.7233 280.839 46.7233 281.032 44.7734C281.723 38.7187 284.212 33.4849 287.336 31.5693C288.995 30.543 290.765 30.4062 292.009 31.2272Z" fill="black"/>
<path d="M48.9401 28.4906C47.5023 29.1405 45.3733 29.9957 44.2397 30.4062C43.106 30.7825 42.1383 31.1588 42.083 31.193C42.0277 31.2614 42.1383 31.9455 42.3042 32.7323L42.6083 34.169L44.0461 33.9638C44.848 33.827 45.7604 33.6217 46.1199 33.5191C46.9217 33.2796 46.9217 33.0744 45.871 43.1315C44.9033 52.5044 44.765 56.6093 45.401 58.3881C46.507 61.5352 49.3272 63.2456 52.3411 62.5614C55.189 61.9115 57.3457 60.2011 59.53 56.9171L60.5254 55.3778L59.4194 54.4542L58.2858 53.5306L57.8434 54.3516C56.1014 57.4645 53.1982 58.9354 51.7328 57.4303C50.4332 56.1646 50.4609 54.5568 51.8434 40.9422C53.0046 29.38 53.1152 28.2169 52.7834 27.7038C52.3411 27.0538 51.871 27.1565 48.9401 28.4906Z" fill="black"/>
</svg>
